<?xml version="1.0" encoding="UTF-8"?>
<svg id="Layer_1" data-name="Layer 1" xmlns="http://www.w3.org/2000/svg" viewBox="0 0 998.19 998.19">
  <defs>
    <style>
      .cls-1 {
        fill: #fff;
      }

      .cls-2 {
        fill: #231f20;
      }

      .cls-3 {
        fill: #2e54b3;
      }
    </style>
  </defs>
  <rect class="cls-1" x="0" width="998.19" height="998.19" rx="60.54" ry="60.54"/>
  <polygon class="cls-2" points="88.12 551.19 88.12 430.16 121.17 430.16 191.19 515.19 191.19 430.16 218.2 430.16 218.2 551.19 187.23 551.19 115.17 465.16 115.17 551.19 88.12 551.19"/>
  <path class="cls-2" d="M311.25,458.19h-63.06v24.92h59.31c5.53,1.31,6.69,6.69,6.69,6.69v4.27h-57.28c-21.28,3.61-21.78,21.78-21.78,21.78v9.12c2.48,24.52,26.23,26.23,26.23,26.23h53.94c24.97-4.43,24.97-24.97,24.97-24.97v-39.02c-3.05-28.21-29.01-29.01-29.01-29.01ZM314.19,522.95s-.36,3.11-4.24,4.24h-44.76s-2.99-.75-3.99-3.99v-3.97s.42-3.3,4.04-4.04l48.95-.02v7.78Z"/>
  <path class="cls-2" d="M436.18,425.18l.02,32.91h-49.72c-28.96,4.15-30.35,30.35-30.35,30.35v32.64c6.04,29.7,30.09,30.09,30.09,30.09h77v-125.99h-27.04ZM436.18,525.19h-45.98s-5.56-.4-7.02-7.02v-25.95s.37-6.98,8.1-8.1l44.9.06v41.02Z"/>
  <path class="cls-2" d="M581.22,430.18h-95.03v119.99h26v-35.02h69.11c29.21-5.9,28.99-28.99,28.99-28.99v-26.92c-2.58-27.7-29.07-29.07-29.07-29.07ZM584.21,482.35s-.11,7.85-7.85,7.85h-64.19v-36h62.01s9.94.07,10.03,10.03v18.12Z"/>
  <circle class="cls-3" cx="696.63" cy="493.07" r="71.26"/>
  <circle class="cls-2" cx="696.63" cy="493.07" r="18"/>
  <path class="cls-2" d="M899.19,430.18h-90s-23.19.85-27.09,27.09v17.58s2.3,21.2,26.31,26.31h64.68s8.14,1.33,9.22,9.22v6.77s.07,6.7-9.05,9.05h-86.07v23.98h93.99s22.88-2.74,26.03-26.03v-22.07s-.56-19.84-24.98-24.98h-65.2s-8.84-.67-8.84-8.84v-7.07s.3-6.54,6.54-6.54h84.45l.03-24.47Z"/>
</svg>